<?xml version="1.0" encoding="utf-8"?>
<!-- Generator: Adobe Illustrator 25.0.1, SVG Export Plug-In . SVG Version: 6.00 Build 0)  -->
<svg version="1.1" id="Layer_1" xmlns="http://www.w3.org/2000/svg" xmlns:xlink="http://www.w3.org/1999/xlink" x="0px" y="0px"
	 viewBox="0 0 500 500" style="enable-background:new 0 0 500 500;" xml:space="preserve">
<style type="text/css">
	.st0{fill-rule:evenodd;clip-rule:evenodd;fill:#007CAE;}
</style>
<polygon class="st0" points="338.69,107.22 452.35,1 421.37,213.35 338.69,107.22 "/>
<polygon class="st0" points="160.6,107.22 46.93,1 77.91,213.35 160.6,107.22 "/>
<polygon class="st0" points="248.25,498.49 212.62,472.16 212.25,471.88 212.17,471.42 192.28,352.7 192.28,352.7 192.09,351.55 
	192.09,351.54 182.68,291.16 182.15,287.76 179.06,286.3 179.06,286.3 75.97,237.71 74.68,237.09 75.54,235.95 194.52,77.22 
	194.87,76.75 195.46,76.75 248.95,76.75 249.64,76.75 250.34,76.75 303.83,76.75 304.41,76.75 304.76,77.22 423.75,235.95 
	424.61,237.09 423.31,237.71 320.23,286.3 320.22,286.3 317.13,287.76 316.6,291.16 307.2,351.54 307.2,351.55 307.01,352.7 
	307.01,352.7 287.12,471.42 287.04,471.88 286.66,472.16 251.03,498.49 250.34,499 249.64,498.49 248.95,499 248.25,498.49 "/>
<polygon class="st0" points="174.53,328.55 196.87,458.4 197.34,461.18 195.04,459.55 32.18,343.19 31.19,342.48 31.93,341.53 
	98.35,255.99 174.17,327.89 174.46,328.16 174.53,328.55 "/>
<polygon class="st0" points="324.76,328.55 302.41,458.4 301.94,461.18 304.24,459.55 467.1,343.19 468.09,342.48 467.35,341.53 
	400.94,255.99 325.11,327.89 324.82,328.16 324.76,328.55 "/>
</svg>
